<svg width="101" height="161" viewBox="0 0 101 161" fill="none" xmlns="http://www.w3.org/2000/svg">
<g clip-path="url(#clip0_415_2)">
<path d="M69.9786 2.35646C70.1021 2.48431 70.2251 2.6128 70.3474 2.74204C70.4266 2.82372 70.4266 2.82372 70.5073 2.90705C72.5176 5.05266 73.3157 8.18538 73.407 11.2055C73.4926 15.7828 72.2052 20.2693 70.5773 24.4201C70.543 24.5077 70.5086 24.5954 70.4733 24.6857C69.6172 26.8542 68.6615 28.9734 67.5887 31.0177C67.533 31.1245 67.533 31.1245 67.4761 31.2334C66.5138 33.071 65.4794 34.8565 64.3702 36.5872C64.327 36.6549 64.2838 36.7226 64.2393 36.7923C63.7431 37.5702 63.239 38.3392 62.7129 39.0923C62.5946 39.2622 62.477 39.4328 62.3595 39.6035C61.4768 40.8832 60.557 42.1268 59.6191 43.3562C59.5813 43.4058 59.5436 43.4554 59.5047 43.5065C59.0642 44.0853 58.6202 44.6596 58.1634 45.2225C58.0241 45.3949 57.8872 45.5691 57.7512 45.7446C57.5639 45.9854 57.3724 46.2214 57.1785 46.4555C56.9946 46.6779 56.8123 46.9018 56.6304 47.1263C56.5948 47.1701 56.5592 47.214 56.5225 47.2592C54.6428 49.5939 54.0518 52.1597 54.1894 55.2599C54.2183 55.7441 54.2595 56.2269 54.3026 56.7097C54.3473 57.2114 54.3885 57.7136 54.4303 58.2157C54.4351 58.2727 54.4399 58.3298 54.4448 58.3885C54.6015 60.2577 54.7408 62.1287 54.8826 63.9994C54.9222 64.5218 54.962 65.0443 55.0018 65.5668C55.0321 65.9631 55.0622 66.3595 55.0922 66.7559C55.1064 66.9432 55.1207 67.1305 55.135 67.3178C55.1548 67.5764 55.1743 67.8349 55.1938 68.0935C55.2026 68.2077 55.2026 68.2077 55.2116 68.3243C55.2168 68.3942 55.2221 68.4642 55.2275 68.5363C55.2321 68.5967 55.2367 68.6571 55.2414 68.7194C55.2511 68.8902 55.2511 69.0616 55.2511 69.2327C55.3006 69.2322 55.3501 69.2316 55.4011 69.231C55.9272 69.2252 56.4532 69.2214 56.9793 69.2186C57.1744 69.2173 57.3694 69.2156 57.5644 69.2133C59.2141 69.1948 60.8413 69.2883 62.4544 69.704C62.538 69.7254 62.6217 69.7468 62.7078 69.7689C65.6246 70.5519 68.3303 71.9245 70.7306 73.9453C70.7748 73.9824 70.819 74.0195 70.8646 74.0577C71.5471 74.6338 72.1847 75.2519 72.7996 75.9161C72.8472 75.9674 72.8948 76.0187 72.9438 76.0716C73.55 76.729 74.1227 77.3947 74.6388 78.1438C74.7157 78.2521 74.7926 78.3603 74.8696 78.4685C77.2097 81.7872 78.665 85.6644 79.3899 89.7969C79.4036 89.8692 79.4172 89.9415 79.4312 90.016C80.3977 95.1555 78.7695 101.102 76.2723 105.406C75.0825 107.411 73.5895 109.322 71.8801 110.789C71.7649 110.892 71.7649 110.892 71.6475 110.996C67.7451 114.445 63.2205 115.772 58.393 116.53C58.3843 117.101 58.4164 117.653 58.4725 118.22C58.481 118.309 58.4895 118.398 58.4982 118.489C58.5166 118.682 58.5352 118.874 58.5539 119.066C58.5839 119.375 58.6135 119.684 58.643 119.993C58.7165 120.763 58.7908 121.534 58.8652 122.304C59.1508 125.261 59.4153 128.217 59.6191 131.182C59.6237 131.25 59.6284 131.318 59.6333 131.387C59.7641 133.279 59.7879 135.167 59.7911 137.064C59.7915 137.257 59.7921 137.449 59.7927 137.641C59.7991 139.858 59.7243 142.061 59.4466 144.26C59.4345 144.358 59.4345 144.358 59.422 144.459C59.2671 145.705 59.0579 146.929 58.7761 148.148C58.7558 148.236 58.7354 148.324 58.7145 148.415C58.2992 150.178 57.7078 151.854 56.937 153.46C56.9126 153.511 56.8882 153.562 56.8631 153.615C55.8014 155.825 54.2683 157.894 52.3391 159.201C52.2892 159.235 52.2393 159.269 52.1878 159.304C50.9122 160.162 49.444 160.694 47.9711 160.914C47.871 160.93 47.771 160.946 47.6679 160.962C44.3891 161.353 40.9301 160.574 38.2961 158.28C37.9597 157.971 37.6366 157.649 37.3194 157.316C37.2515 157.248 37.2515 157.248 37.1823 157.179C36.1619 156.119 35.4725 154.687 35.03 153.23C35.008 153.158 34.9861 153.085 34.9635 153.011C34.1814 150.294 34.6069 147.253 35.7289 144.741C36.6655 142.725 38.0685 141.285 39.9775 140.5C42.4753 139.638 45.2306 140.13 47.5172 141.47C49.6386 142.764 50.7952 144.98 51.477 147.505C52.1109 149.961 52.2713 152.814 51.2663 155.174C54.5714 151.756 55.2646 145.86 55.6342 141.121C55.6418 141.026 55.6494 140.93 55.6572 140.831C56.116 134.776 55.8104 128.647 55.366 122.603C55.3582 122.497 55.3505 122.391 55.3424 122.282C55.2719 121.331 55.1984 120.38 55.1113 119.43C55.106 119.372 55.1007 119.314 55.0952 119.254C55.0695 118.974 55.0434 118.694 55.0166 118.414C54.9657 117.868 54.9332 117.336 54.9446 116.787C54.8968 116.788 54.8491 116.789 54.7999 116.79C52.6955 116.823 50.5913 116.359 48.5246 115.974C48.0178 115.88 47.5106 115.792 47.0021 115.71C44.5822 115.318 42.2452 114.748 39.9248 113.874C39.802 113.828 39.802 113.828 39.6767 113.781C36.2256 112.481 33.0121 110.541 30.1927 107.962C30.1511 107.924 30.1096 107.887 30.0669 107.848C29.3419 107.19 28.6797 106.459 28.0182 105.723C27.9755 105.676 27.9327 105.629 27.8886 105.58C27.3432 104.974 26.8377 104.353 26.3611 103.678C26.2808 103.568 26.2003 103.459 26.1195 103.35C25.5941 102.631 25.1171 101.893 24.6752 101.107C24.6397 101.044 24.6041 100.982 24.5675 100.917C22.5748 97.3716 21.2857 93.3876 20.9969 89.1971C20.9926 89.1349 20.9883 89.0727 20.9838 89.0087C20.4726 81.2678 23.0349 73.8836 27.2537 67.8389C27.3585 67.6887 27.4621 67.5377 27.5656 67.3865C28.2934 66.3304 29.0844 65.3349 29.8861 64.3487C29.9447 64.276 30.0033 64.2032 30.0637 64.1282C30.5958 63.4717 31.1473 62.8397 31.7085 62.2143C31.8555 62.0503 32.0021 61.8859 32.1487 61.7215C32.5675 61.253 32.9847 60.7874 33.4364 60.3581C33.6467 60.1574 33.8465 59.944 34.0482 59.7325C34.4138 59.3521 34.7891 58.9921 35.1788 58.6424C35.4457 58.398 35.7046 58.1445 35.9639 57.8903C36.4567 57.4095 36.9624 56.9527 37.4802 56.5062C37.6369 56.3706 37.7928 56.2339 37.9486 56.097C39.1389 55.0527 40.3569 54.0535 41.5968 53.084C41.7676 52.9499 41.9378 52.8147 42.1079 52.6793C43.6919 51.4228 45.326 50.244 46.9749 49.097C47.0714 49.0299 47.0714 49.0299 47.1698 48.9613C47.3059 48.8667 47.4421 48.7722 47.5783 48.6779C47.7145 48.5833 47.8503 48.488 47.9857 48.3921C48.3147 48.1606 48.6423 47.9467 48.9925 47.7575C49.0568 47.7205 49.1212 47.6834 49.1875 47.6453C49.3744 47.5386 49.3744 47.5386 49.5549 47.4546C49.7534 47.3376 49.8455 47.2556 49.9635 47.0406C50.0208 46.6023 50.0006 46.179 49.9761 45.7381C49.9629 45.4858 49.9549 45.2337 49.9481 44.9811C49.935 44.4998 49.9191 44.0188 49.9024 43.5376C49.8839 43.0025 49.8667 42.4673 49.8495 41.932C49.8443 41.7721 49.8443 41.7721 49.8391 41.6088C49.6003 34.1562 49.557 26.6081 54.9446 6.08371C54.9749 6.03616 55.0052 5.98861 55.0364 5.93962C56.9735 2.92047 59.9309 0.700348 63.2207 0.0858392C63.28 0.0744627 63.3393 0.0630861 63.4003 0.0513649C65.8226 -0.328853 68.1654 0.562869 69.9786 2.35646ZM58.266 9.26205C57.574 10.2215 56.9836 11.2451 56.4772 12.3386C56.4445 12.4081 56.4118 12.4776 56.3782 12.5492C54.2298 17.1633 53.8606 22.4302 53.6511 27.5381C53.6449 27.6871 53.6386 27.836 53.6321 27.985C53.5628 29.6097 53.5537 31.2316 53.5549 32.8577C53.5551 33.2202 53.5549 33.5827 53.5548 33.9452C53.5547 34.5521 53.5548 35.159 53.5552 35.7659C53.5556 36.4642 53.5555 37.1625 53.5551 37.8607C53.5547 38.4656 53.5547 39.0704 53.5549 39.6752C53.555 40.0342 53.555 40.3932 53.5547 40.7522C53.5545 41.0889 53.5547 41.4257 53.5551 41.7625C53.5552 41.8849 53.5552 42.0074 53.555 42.1299C53.554 42.9147 53.5824 43.6882 53.6418 44.4701C53.6973 44.4079 53.7529 44.3457 53.8101 44.2816C53.9434 44.1328 54.077 43.9843 54.2112 43.8365C54.273 43.7681 54.3348 43.6998 54.3986 43.6293C54.46 43.5616 54.5214 43.4939 54.5847 43.4241C54.793 43.1829 54.989 42.9332 55.1854 42.68C55.4226 42.3789 55.6699 42.0888 55.9168 41.7978C56.3654 41.267 56.8114 40.7337 57.2534 40.1959C57.4048 40.0117 57.5572 39.8284 57.7102 39.6457C58.1221 39.1528 58.5214 38.6547 58.8991 38.1281C59.0353 37.9384 59.1727 37.7503 59.3116 37.5632C59.8892 36.7824 60.4298 35.9788 60.9531 35.1518C61.0734 34.9618 61.1942 34.7724 61.3151 34.583C61.811 33.8045 62.2944 33.0181 62.7609 32.2173C62.7986 32.1528 62.8362 32.0884 62.875 32.022C64.1182 29.8863 65.2665 27.6818 66.3626 25.4483C66.4038 25.3645 66.445 25.2807 66.4875 25.1943C66.7814 24.5956 67.071 23.9943 67.3588 23.3919C67.4031 23.2997 67.4474 23.2076 67.493 23.1127C69.2047 19.542 70.9257 15.2599 69.8403 11.1302C69.304 9.25367 68.3481 7.7133 66.8047 6.71596C63.6662 4.96875 60.4326 6.4884 58.266 9.26205ZM49.8725 55.6304C49.774 55.7255 49.6756 55.8205 49.5771 55.9156C49.5266 55.9645 49.476 56.0133 49.424 56.0637C49.1958 56.2842 48.9666 56.5035 48.7374 56.7229C48.648 56.8086 48.5586 56.8942 48.4692 56.9799C47.9328 57.494 47.9328 57.494 47.7987 57.6225C47.7092 57.7083 47.6197 57.7941 47.5303 57.88C47.3084 58.0929 47.0861 58.3052 46.8626 58.5162C45.9156 59.4125 45.0186 60.3602 44.1395 61.3391C44.0791 61.4063 44.0186 61.4735 43.9563 61.5428C43.6387 61.8989 43.3356 62.2627 43.0422 62.6438C42.79 62.9624 42.5148 63.2556 42.2429 63.5528C41.962 63.8627 41.6985 64.1832 41.4407 64.5171C41.1643 64.8702 40.8728 65.2077 40.5843 65.5483C40.2537 65.9402 39.933 66.34 39.6183 66.7479C39.5805 66.7969 39.5426 66.8458 39.5037 66.8963C39.2736 67.1949 39.0448 67.4947 38.8159 67.7944C38.7067 67.9371 38.597 68.0792 38.4871 68.2213C37.9616 68.9038 37.4716 69.613 36.9862 70.3315C36.8627 70.5134 36.7379 70.6941 36.6126 70.8744C32.6754 76.5506 29.6346 83.0596 30.3286 90.4401C30.3731 90.8285 30.4315 91.2121 30.4992 91.5962C30.514 91.6804 30.5288 91.7646 30.5441 91.8513C31.2211 95.5508 32.7567 99.0066 34.9438 101.878C35.01 101.968 35.0762 102.058 35.1423 102.148C36.0235 103.336 36.996 104.442 38.0857 105.391C38.1776 105.477 38.2693 105.562 38.3608 105.648C39.102 106.342 39.8743 106.956 40.6911 107.533C40.7632 107.584 40.7632 107.584 40.8367 107.636C41.167 107.868 41.5024 108.088 41.8406 108.305C41.901 108.343 41.9614 108.382 42.0236 108.422C45.5093 110.65 49.1923 111.759 53.1437 112.358C53.2406 112.373 53.3375 112.388 53.4373 112.403C53.5277 112.416 53.6181 112.43 53.7113 112.443C53.7905 112.455 53.8698 112.466 53.9515 112.478C54.1818 112.503 54.4067 112.507 54.638 112.503C54.6668 111.584 54.5808 110.672 54.5107 109.757C54.4969 109.574 54.4832 109.39 54.4695 109.207C54.432 108.708 54.3942 108.209 54.3562 107.71C54.3159 107.179 54.276 106.648 54.2361 106.117C54.1636 105.154 54.0907 104.191 54.0177 103.228C53.9512 102.35 53.8848 101.472 53.8185 100.594C53.8141 100.536 53.8097 100.478 53.8052 100.419C53.7876 100.185 53.77 99.9513 53.7523 99.7176C53.592 97.5938 53.4313 95.4701 53.2704 93.3463C53.1463 91.7094 53.0227 90.0724 52.8995 88.4354C52.894 88.3622 52.8884 88.289 52.8828 88.2136C52.8774 88.1417 52.8719 88.0698 52.8664 87.9958C52.8019 87.1393 52.7371 86.2828 52.6723 85.4263C52.6633 85.3077 52.6543 85.1891 52.6453 85.0705C52.641 85.0127 52.6366 84.955 52.6321 84.8955C52.6016 84.4929 52.5713 84.0903 52.5411 83.6877C52.5016 83.1633 52.4619 82.6389 52.4219 82.1146C52.4078 81.9294 52.3939 81.7442 52.38 81.559C52.3617 81.3143 52.343 81.0697 52.3242 80.8251C52.319 80.7543 52.3138 80.6836 52.3085 80.6107C52.2866 80.2658 52.2866 80.2658 52.1858 79.9432C51.8176 80.0678 51.4833 80.241 51.1429 80.4386C51.0877 80.4702 51.0326 80.5019 50.9757 80.5346C50.7978 80.6369 50.6201 80.7399 50.4425 80.8429C50.382 80.8779 50.3214 80.9129 50.2591 80.9489C48.2038 82.1377 46.2792 83.3684 44.5993 85.1699C44.5582 85.2136 44.5171 85.2572 44.4747 85.3022C42.5604 87.3427 41.3859 89.8424 40.5642 92.6248C40.5443 92.691 40.5243 92.7572 40.5038 92.8254C40.4672 92.9475 40.4316 93.07 40.3973 93.1929C40.2808 93.5824 40.1233 93.8117 39.8482 94.081C39.7581 94.0174 39.7581 94.0174 39.6662 93.9525C39.4815 93.8098 39.4815 93.8098 39.3118 93.824C38.9578 93.0636 38.7189 92.2746 38.6221 91.4248C38.6136 91.3582 38.6051 91.2916 38.5964 91.223C38.3248 88.6425 38.6948 85.9619 39.2351 83.4562C39.2507 83.3837 39.2663 83.3111 39.2824 83.2363C39.9272 80.3314 41.4869 77.5982 43.4499 75.5733C43.493 75.5286 43.5362 75.4839 43.5807 75.4378C45.2218 73.7882 47.0985 72.5211 49.0775 71.4498C49.1513 71.4098 49.2251 71.3698 49.3012 71.3286C50.0221 70.9447 50.7588 70.6031 51.4961 70.2609C51.4927 70.2113 51.4893 70.1617 51.4857 70.1106C51.4421 69.4812 51.3986 68.8517 51.3552 68.2222C51.3429 68.0442 51.3306 67.8662 51.3183 67.6882C51.2018 66.0007 51.0873 64.3131 50.9745 62.6253C50.9538 62.3149 50.933 62.0046 50.9122 61.6943C50.9053 61.5917 50.8984 61.4891 50.8914 61.3834C50.8775 61.176 50.8636 60.9686 50.8497 60.7612C50.8081 60.1402 50.7667 59.5192 50.7255 58.8982C50.6994 58.5058 50.6731 58.1134 50.6467 57.721C50.6344 57.5362 50.6221 57.3515 50.6099 57.1667C50.5931 56.9121 50.576 56.6575 50.5588 56.403C50.554 56.3283 50.5491 56.2537 50.5441 56.1768C50.521 55.8386 50.493 55.5117 50.4233 55.1806C50.237 55.1806 50.0145 55.4924 49.8725 55.6304ZM55.9408 79.0007C55.9929 80.5841 56.1047 82.1621 56.2141 83.7416C56.2412 84.1341 56.2681 84.5266 56.2949 84.9192C56.3351 85.5072 56.3754 86.0951 56.4158 86.6831C56.5444 88.556 56.6719 90.429 56.7987 92.3021C56.8048 92.3927 56.8109 92.4832 56.8173 92.5766C57.0747 96.3807 57.3189 100.186 57.5557 103.992C57.5691 104.207 57.5826 104.423 57.596 104.639C57.7628 107.317 57.9277 109.995 58.0864 112.674C58.22 112.648 58.3536 112.621 58.4872 112.594C58.5616 112.579 58.636 112.564 58.7126 112.549C59.0046 112.487 59.2909 112.408 59.5781 112.323C59.6357 112.306 59.6933 112.289 59.7527 112.272C59.9366 112.217 60.1203 112.162 60.3039 112.107C60.3984 112.078 60.3984 112.078 60.4948 112.049C61.457 111.757 62.395 111.442 63.2974 110.961C63.3529 110.931 63.4084 110.902 63.4656 110.872C65.5016 109.772 67.2503 108.114 68.5849 106.077C68.6168 106.028 68.6487 105.98 68.6815 105.93C70.9809 102.377 72.0421 97.827 71.4394 93.4973C70.7876 89.1683 68.8383 85.1409 65.6199 82.5402C62.6955 80.2198 59.4381 79.4698 55.9408 79.0007Z" fill="#FDB724"/>
<path d="M20.2967 36.5759C20.429 36.5758 20.5614 36.5756 20.6938 36.5755C21.0525 36.5751 21.4111 36.5752 21.7697 36.5755C22.0762 36.5757 22.3826 36.5755 22.689 36.5754C23.5144 36.575 24.3398 36.5752 25.1652 36.5758C25.7675 36.5762 26.3699 36.5764 26.9722 36.5765C32.1772 36.5776 37.3819 36.5988 42.5868 36.6422C42.6416 36.6426 42.6965 36.6431 42.753 36.6436C43.8283 36.6526 44.9035 36.6627 45.9788 36.6727C45.9788 39.5851 45.9788 42.4975 45.9788 45.4981C44.9775 45.5013 44.9775 45.5013 43.956 45.5046C41.8155 45.5116 39.675 45.5189 37.5345 45.5265C37.2015 45.5277 36.8685 45.5288 36.5355 45.53C36.4692 45.5302 36.4029 45.5305 36.3346 45.5307C35.264 45.5345 34.1935 45.538 33.1229 45.5414C32.0228 45.5448 30.9227 45.5486 29.8226 45.5527C29.1449 45.5552 28.4671 45.5574 27.7894 45.5594C27.3234 45.5608 26.8574 45.5624 26.3914 45.5643C26.1233 45.5654 25.8553 45.5664 25.5872 45.567C23.4514 45.5552 23.4514 45.5552 21.3274 45.7766C21.2613 45.7876 21.1953 45.7986 21.1272 45.81C19.4667 46.106 17.9663 46.7705 16.9403 48.3257C16.1755 49.65 15.9271 51.1432 15.9287 52.6981C15.9285 52.7813 15.9283 52.8644 15.9281 52.9501C15.9274 53.2271 15.9273 53.5041 15.9272 53.7811C15.9269 53.9804 15.9265 54.1798 15.926 54.3792C15.9252 54.8081 15.9245 55.237 15.924 55.6659C15.9232 56.3466 15.9217 57.0273 15.92 57.7079C15.9194 57.9416 15.9188 58.1753 15.9183 58.409C15.918 58.4966 15.918 58.4966 15.9178 58.586C15.9162 59.2501 15.9148 59.9142 15.9134 60.5782C15.9133 60.6389 15.9132 60.6995 15.913 60.762C15.911 61.7401 15.9096 62.7182 15.9083 63.6963C15.907 64.7051 15.9047 65.7138 15.9018 66.7226C15.9002 67.2871 15.899 67.8516 15.8988 68.4161C15.8944 79.3197 15.8944 79.3197 12.6262 83.0588C12.205 83.5077 11.739 83.8552 11.2456 84.1964C11.1614 84.2547 11.1614 84.2547 11.0754 84.3142C10.9635 84.391 10.8511 84.467 10.7383 84.5422C10.6048 84.6327 10.4746 84.7293 10.3452 84.827C10.3452 84.8836 10.3452 84.9401 10.3452 84.9984C10.4913 85.1215 10.4913 85.1215 10.6817 85.2444C10.7531 85.2931 10.8245 85.3418 10.898 85.392C10.9748 85.4441 11.0516 85.4962 11.1307 85.55C12.6729 86.627 13.6752 87.9443 14.4067 89.7967C14.4296 89.8534 14.4524 89.9102 14.476 89.9687C15.2557 91.9341 15.5956 94.0955 15.786 96.223C15.7923 96.2904 15.7986 96.3579 15.8051 96.4274C15.884 97.3944 15.875 98.3618 15.876 99.332C15.8765 99.5328 15.877 99.7336 15.8775 99.9344C15.8786 100.365 15.8795 100.796 15.8803 101.226C15.8814 101.85 15.883 102.474 15.8848 103.098C15.8877 104.112 15.8903 105.127 15.8928 106.141C15.8929 106.201 15.8931 106.262 15.8932 106.324C15.8953 107.184 15.8971 108.043 15.8988 108.902C15.899 108.963 15.8991 109.023 15.8992 109.086C15.8993 109.146 15.8995 109.207 15.8996 109.269C15.9016 110.28 15.9043 111.29 15.9074 112.301C15.9094 112.978 15.9108 113.655 15.9117 114.332C15.9124 114.754 15.9137 115.176 15.9152 115.598C15.9158 115.792 15.9161 115.987 15.9161 116.182C15.9168 118.407 16.0927 120.542 17.5542 122.208C18.9408 123.706 21.0645 124.034 22.9082 124.119C22.9826 124.123 23.057 124.126 23.1336 124.13C24.2454 124.176 25.3582 124.17 26.4706 124.172C26.8115 124.172 27.1524 124.173 27.4932 124.174C28.0817 124.176 28.6703 124.177 29.2588 124.178C30.1097 124.18 30.9607 124.182 31.8116 124.184C33.1928 124.188 34.574 124.191 35.9552 124.194C36.0376 124.194 36.12 124.195 36.2049 124.195C36.9584 124.197 37.7119 124.198 38.4654 124.2C38.969 124.201 39.4726 124.202 39.9763 124.203C40.0591 124.203 40.1419 124.204 40.2272 124.204C41.6058 124.207 42.9843 124.21 44.3629 124.214C45.2125 124.216 46.0621 124.218 46.9117 124.22C47.4922 124.221 48.0727 124.222 48.6533 124.224C48.9885 124.225 49.3238 124.225 49.659 124.226C49.9653 124.226 50.2717 124.227 50.578 124.228C50.6893 124.228 50.8005 124.229 50.9118 124.229C51.0621 124.229 51.2123 124.229 51.3626 124.23C51.4882 124.23 51.4882 124.23 51.6164 124.23C51.8027 124.242 51.8027 124.242 51.8794 124.327C51.901 124.562 51.9179 124.796 51.9317 125.031C51.9363 125.106 51.9409 125.18 51.9456 125.256C51.9607 125.503 51.9752 125.751 51.9895 125.998C51.9945 126.083 51.9995 126.167 52.0047 126.254C52.0875 127.662 52.1497 129.071 52.2003 130.48C52.2035 130.571 52.2068 130.662 52.2102 130.755C52.2194 131.014 52.2283 131.273 52.2371 131.532C52.241 131.646 52.241 131.646 52.245 131.762C52.2474 131.834 52.2497 131.906 52.2521 131.98C52.2541 132.041 52.2562 132.102 52.2582 132.166C52.2642 132.466 52.2628 132.766 52.2625 133.067C44.2118 133.114 36.1611 133.16 26.802 133.168C26.2045 133.169 25.6071 133.169 25.0097 133.171C24.2813 133.172 23.553 133.173 22.8246 133.172C22.4558 133.172 22.087 133.173 21.7182 133.173C17.4338 133.184 12.7381 133.121 9.48312 129.57C7.38673 127.191 6.88468 123.835 6.88572 120.613C6.88545 120.512 6.88518 120.412 6.8849 120.308C6.88423 120.033 6.88389 119.758 6.88369 119.482C6.88339 119.184 6.88265 118.885 6.88196 118.587C6.88082 118.071 6.87993 117.554 6.8792 117.038C6.87813 116.289 6.87651 115.54 6.87473 114.791C6.87183 113.572 6.86915 112.353 6.86671 111.134C6.86656 111.062 6.86642 110.989 6.86627 110.914C6.86422 109.883 6.86239 108.852 6.86065 107.821C6.86046 107.712 6.86046 107.712 6.86027 107.602C6.86015 107.529 6.86003 107.457 6.85991 107.382C6.85784 106.169 6.8552 104.956 6.8521 103.743C6.85022 102.997 6.84881 102.252 6.84803 101.506C6.84746 100.993 6.84633 100.481 6.8448 99.968C6.84395 99.6738 6.84339 99.3795 6.84335 99.0852C6.84232 95.19 6.68466 91.3026 4.17161 88.34C3.20984 87.3017 2.0664 86.482 0.941427 85.6845C0.88117 85.6416 0.820912 85.5986 0.758829 85.5544C0.641125 85.4706 0.523093 85.3875 0.404709 85.3049C0.267173 85.2072 0.133173 85.1034 0 84.9984C0 84.9418 0 84.8853 0 84.827C0.114199 84.7281 0.114199 84.7281 0.275394 84.6185C0.334817 84.5775 0.394241 84.5365 0.455466 84.4942C0.520113 84.4503 0.58476 84.4064 0.651366 84.3611C1.92489 83.4785 3.11376 82.541 4.21472 81.3997C4.26194 81.3525 4.30916 81.3053 4.3578 81.2567C6.30978 79.22 6.70642 75.9815 6.81314 73.1576C6.83746 72.3271 6.8327 71.4956 6.83331 70.6648C6.83361 70.3648 6.83435 70.0648 6.83504 69.7648C6.83617 69.2465 6.83706 68.7281 6.83779 68.2097C6.83886 67.4582 6.84049 66.7066 6.84227 65.9551C6.84516 64.7327 6.84785 63.5102 6.85028 62.2878C6.85043 62.2149 6.85057 62.1419 6.85073 62.0668C6.85278 61.0322 6.85461 59.9977 6.85635 58.9632C6.85647 58.8903 6.85659 58.8175 6.85672 58.7425C6.8569 58.6333 6.8569 58.6333 6.85709 58.522C6.85915 57.3041 6.86179 56.0862 6.86489 54.8683C6.86678 54.1197 6.86819 53.3711 6.86897 52.6226C6.86954 52.1087 6.87066 51.5948 6.87219 51.081C6.87305 50.7857 6.87369 50.4905 6.87365 50.1952C6.87461 46.4932 7.16737 42.8206 9.59328 40.0465C12.3822 36.9609 16.5681 36.5703 20.2967 36.5759Z" fill="#1F67AF"/>
<path d="M69.4584 36.4384C69.5924 36.4385 69.7265 36.438 69.8605 36.437C70.2234 36.4359 70.5858 36.4428 70.9485 36.4511C71.3306 36.4585 71.7127 36.4588 72.0948 36.4598C72.7379 36.4626 73.3809 36.47 74.0239 36.4807C74.9233 36.4957 75.8227 36.5026 76.7222 36.5078C88.2496 36.5779 88.2496 36.5779 91.5773 40.2695C94.1195 43.1851 94.1267 47.4644 94.1252 51.2679C94.1256 51.51 94.1262 51.7521 94.1268 51.9942C94.1279 52.5104 94.1286 53.0267 94.1289 53.543C94.1293 54.2914 94.1308 55.0398 94.1324 55.7883C94.1352 57.006 94.1373 58.2238 94.1391 59.4415C94.1392 59.514 94.1393 59.5865 94.1394 59.6612C94.1402 60.2495 94.141 60.8378 94.1418 61.4262C94.1425 61.9411 94.1432 62.4561 94.1439 62.971C94.144 63.0436 94.1441 63.1161 94.1442 63.1909C94.146 64.4053 94.1483 65.6198 94.151 66.8342C94.1527 67.5799 94.1538 68.3255 94.1542 69.0712C94.1545 69.5825 94.1554 70.0939 94.1567 70.6052C94.1574 70.8989 94.1578 71.1926 94.1577 71.4863C94.1572 73.1368 94.1752 74.8009 94.472 76.4247C94.4852 76.4985 94.4984 76.5722 94.512 76.6482C94.8062 78.2231 95.3645 79.6754 96.3255 80.8856C96.3677 80.9439 96.4098 81.0023 96.4533 81.0623C96.8194 81.5602 97.252 81.9466 97.7048 82.3422C97.7807 82.4103 97.8566 82.4783 97.9347 82.5484C98.5474 83.0896 99.1901 83.5634 99.8488 84.0312C100.08 84.1962 100.311 84.3638 100.54 84.5325C100.613 84.5857 100.686 84.6388 100.761 84.6935C100.923 84.8271 100.923 84.8271 101 84.9984C100.962 85.0247 100.925 85.0509 100.886 85.0779C97.9823 87.1017 95.3535 89.1139 94.5267 93.054C94.17 94.902 94.1571 96.7918 94.1578 98.6735C94.1574 98.9139 94.1568 99.1544 94.1562 99.3949C94.155 99.9091 94.1544 100.423 94.1541 100.938C94.1536 101.684 94.1522 102.429 94.1505 103.175C94.1478 104.39 94.1456 105.604 94.1439 106.818C94.1438 106.89 94.1437 106.963 94.1436 107.037C94.1429 107.551 94.1422 108.064 94.1415 108.578C94.1407 109.163 94.1399 109.749 94.1391 110.335C94.139 110.407 94.1389 110.479 94.1387 110.554C94.137 111.763 94.1347 112.973 94.132 114.183C94.1303 114.925 94.1292 115.668 94.1288 116.411C94.1284 116.921 94.1276 117.431 94.1263 117.941C94.1256 118.234 94.1252 118.527 94.1253 118.819C94.1263 122.241 94.1079 126.23 91.9575 128.954C91.9075 129.021 91.8575 129.088 91.806 129.157C89.6896 131.915 86.5376 132.778 83.4166 133.051C82.0647 133.16 80.7195 133.177 79.3647 133.173C79.0403 133.172 78.7159 133.172 78.3914 133.172C77.7712 133.172 77.1509 133.172 76.5306 133.17C76.0337 133.169 75.5368 133.168 75.0399 133.168C71.0233 133.164 67.0069 133.15 62.9909 133.067C62.9456 132.778 62.9049 132.493 62.8893 132.199C62.8839 132.101 62.8839 132.101 62.8783 132.001C62.8747 131.931 62.871 131.861 62.8673 131.789C62.8586 131.634 62.85 131.479 62.8413 131.324C62.8346 131.201 62.8346 131.201 62.8277 131.076C62.7374 129.446 62.6201 127.821 62.4752 126.195C62.4687 126.121 62.4622 126.048 62.4555 125.972C62.4436 125.835 62.4313 125.699 62.4187 125.563C62.3905 125.243 62.3749 124.927 62.3763 124.604C62.3765 124.536 62.3767 124.468 62.377 124.398C62.3774 124.32 62.3774 124.32 62.3778 124.242C62.4515 124.241 62.5251 124.241 62.601 124.241C64.4039 124.234 66.2069 124.226 68.0098 124.217C68.8818 124.213 69.7537 124.209 70.6257 124.206C71.3868 124.203 72.148 124.199 72.9092 124.195C73.3111 124.193 73.7131 124.191 74.115 124.19C76.2798 124.184 76.2798 124.184 78.4421 124.077C78.5817 124.067 78.5817 124.067 78.7241 124.057C80.5699 123.906 82.4496 123.406 83.758 121.843C83.9626 121.542 84.1328 121.231 84.2944 120.9C84.3297 120.829 84.3651 120.758 84.4015 120.685C84.9656 119.437 85.0728 117.971 85.0713 116.594C85.0715 116.511 85.0717 116.428 85.0719 116.342C85.0726 116.066 85.0727 115.79 85.0728 115.515C85.0731 115.316 85.0735 115.117 85.074 114.918C85.0748 114.49 85.0755 114.063 85.076 113.635C85.0768 112.957 85.0783 112.279 85.08 111.601C85.0806 111.368 85.0812 111.135 85.0817 110.902C85.0819 110.815 85.0819 110.815 85.0822 110.726C85.0838 110.065 85.0852 109.404 85.0866 108.743C85.0867 108.682 85.0868 108.622 85.087 108.56C85.089 107.585 85.0904 106.61 85.0917 105.636C85.093 104.631 85.0952 103.625 85.0982 102.62C85.0998 102.058 85.101 101.495 85.1012 100.933C85.1013 100.402 85.1026 99.8716 85.1046 99.341C85.1051 99.1482 85.1053 98.9555 85.105 98.7628C85.1029 96.9359 85.2294 95.1086 85.5779 93.3205C85.5977 93.2175 85.6174 93.1146 85.6377 93.0085C86.0149 91.1089 86.5979 89.0746 87.7428 87.569C87.8268 87.4575 87.8268 87.4575 87.9125 87.3437C88.5736 86.4958 89.2881 85.9263 90.1418 85.3474C90.2832 85.2502 90.2832 85.2502 90.4524 85.1015C90.5781 84.9984 90.5781 84.9984 90.7314 84.9984C90.7314 84.9419 90.7314 84.8853 90.7314 84.8271C90.6476 84.7922 90.6476 84.7922 90.5621 84.7566C88.5141 83.7908 87.1623 81.7559 86.3485 79.5202C85.5625 77.1884 85.1253 74.6066 85.1262 72.112C85.126 72.0275 85.1257 71.9431 85.1254 71.856C85.1246 71.5758 85.1243 71.2956 85.124 71.0154C85.1235 70.8133 85.123 70.6112 85.1225 70.4092C85.1213 69.9753 85.1204 69.5414 85.1197 69.1074C85.1186 68.4785 85.117 67.8496 85.1152 67.2206C85.1123 66.1979 85.1097 65.1752 85.1072 64.1525C85.1071 64.0914 85.1069 64.0303 85.1068 63.9673C85.1047 63.1013 85.1029 62.2352 85.1011 61.3691C85.101 61.3082 85.1009 61.2473 85.1008 61.1845C85.1006 61.0932 85.1006 61.0932 85.1004 61C85.0984 59.9815 85.0957 58.963 85.0926 57.9445C85.0906 57.2625 85.0892 56.5805 85.0883 55.8985C85.0876 55.4727 85.0863 55.0468 85.0848 54.621C85.0842 54.4249 85.0839 54.2287 85.0839 54.0326C85.0831 51.6757 84.974 49.2825 83.4224 47.5C81.4017 45.4629 78.3017 45.5759 75.7549 45.5663C75.6134 45.5654 75.472 45.5646 75.3306 45.5637C74.9522 45.5614 74.5737 45.5596 74.1952 45.5579C73.7977 45.556 73.4002 45.5536 73.0027 45.5514C72.2523 45.5471 71.5019 45.5432 70.7516 45.5395C69.8963 45.5353 69.041 45.5306 68.1857 45.5259C66.4286 45.5161 64.6714 45.507 62.9143 45.4982C62.9995 45.3339 63.0848 45.1697 63.1702 45.0056C63.2414 44.8684 63.2414 44.8684 63.3141 44.7285C63.4782 44.4179 63.6518 44.1169 63.8326 43.8183C63.8671 43.7608 63.9015 43.7033 63.937 43.6441C64.0109 43.5209 64.0849 43.3978 64.159 43.2747C64.3615 42.9384 64.5631 42.6013 64.7648 42.2643C64.8283 42.1582 64.8283 42.1582 64.893 42.0501C65.4834 41.0631 66.0658 40.0703 66.6491 39.078C66.6907 39.0072 66.7323 38.9364 66.7752 38.8634C66.8514 38.7339 66.9275 38.6044 67.0036 38.4748C67.0752 38.3529 67.148 38.2319 67.222 38.1118C67.3274 37.9274 67.4159 37.7498 67.5038 37.5554C67.9892 36.5425 68.4699 36.4029 69.4584 36.4384Z" fill="#1F67AF"/>
</g>
<defs>
<clipPath id="clip0_415_2">
<rect width="101" height="161" fill="white"/>
</clipPath>
</defs>
</svg>
