<svg width="175" height="241" viewBox="0 0 175 241" fill="none" xmlns="http://www.w3.org/2000/svg">
<g clip-path="url(#clip0_415_2)">
<path d="M121.25 3.52727C121.464 3.71864 121.677 3.91098 121.889 4.10443C122.026 4.2267 122.026 4.2267 122.166 4.35143C125.65 7.5632 127.032 12.2525 127.19 16.7734C127.339 23.6251 125.108 30.3408 122.288 36.5541C122.228 36.6854 122.169 36.8166 122.107 36.9518C120.624 40.1978 118.968 43.37 117.109 46.4301C117.013 46.59 117.013 46.59 116.914 46.753C115.247 49.5037 113.455 52.1764 111.533 54.767C111.458 54.8684 111.383 54.9697 111.306 55.0741C110.446 56.2385 109.573 57.3897 108.661 58.5169C108.456 58.7712 108.252 59.0267 108.049 59.2822C106.519 61.1977 104.926 63.0592 103.301 64.8995C103.235 64.9738 103.17 65.048 103.102 65.1245C102.339 65.991 101.57 66.8505 100.778 67.6932C100.537 67.9512 100.3 68.2121 100.064 68.4748C99.7396 68.8352 99.4079 69.1884 99.0718 69.5389C98.7533 69.8718 98.4373 70.2069 98.1223 70.543C98.0605 70.6086 97.9988 70.6743 97.9352 70.7419C94.6783 74.2368 93.6543 78.0775 93.8927 82.7182C93.9428 83.4429 94.0143 84.1656 94.089 84.8883C94.1664 85.6394 94.2377 86.391 94.3101 87.1426C94.3184 87.228 94.3267 87.3134 94.3352 87.4014C94.6068 90.1994 94.8482 93 95.0938 95.8002C95.1624 96.5823 95.2313 97.3643 95.3004 98.1464C95.3528 98.7397 95.4049 99.333 95.457 99.9264C95.4817 100.207 95.5064 100.487 95.5312 100.768C95.5654 101.155 95.5993 101.542 95.6331 101.929C95.6483 102.1 95.6483 102.1 95.6638 102.274C95.6729 102.379 95.682 102.484 95.6914 102.591C95.6993 102.682 95.7073 102.772 95.7155 102.866C95.7323 103.121 95.7323 103.378 95.7323 103.634C95.8181 103.633 95.9038 103.632 95.9922 103.631C96.9037 103.623 97.8152 103.617 98.7267 103.613C99.0647 103.611 99.4026 103.608 99.7406 103.605C102.599 103.577 105.418 103.717 108.213 104.339C108.358 104.371 108.503 104.404 108.652 104.437C113.706 105.609 118.394 107.663 122.553 110.688C122.63 110.744 122.706 110.799 122.785 110.856C123.968 111.719 125.073 112.644 126.138 113.638C126.221 113.715 126.303 113.792 126.388 113.871C127.438 114.855 128.431 115.852 129.325 116.973C129.458 117.135 129.591 117.297 129.725 117.459C133.779 122.427 136.301 128.23 137.557 134.416C137.581 134.525 137.604 134.633 137.629 134.744C139.303 142.438 136.482 151.339 132.155 157.782C130.094 160.783 127.507 163.643 124.545 165.84C124.345 165.993 124.345 165.993 124.142 166.149C117.38 171.312 109.541 173.298 101.176 174.433C101.161 175.288 101.217 176.114 101.314 176.963C101.329 177.096 101.343 177.229 101.358 177.366C101.39 177.654 101.423 177.942 101.455 178.229C101.507 178.692 101.558 179.154 101.609 179.617C101.737 180.77 101.865 181.923 101.994 183.076C102.489 187.502 102.948 191.927 103.301 196.366C103.309 196.467 103.317 196.568 103.325 196.673C103.552 199.505 103.593 202.331 103.599 205.171C103.599 205.458 103.6 205.746 103.601 206.034C103.613 209.353 103.483 212.651 103.002 215.941C102.981 216.089 102.981 216.089 102.959 216.24C102.691 218.104 102.328 219.938 101.84 221.761C101.805 221.893 101.77 222.025 101.733 222.161C101.014 224.8 99.9889 227.309 98.6534 229.713C98.6112 229.79 98.569 229.866 98.5255 229.945C96.6859 233.254 94.0295 236.35 90.6868 238.307C90.6003 238.358 90.5138 238.409 90.4247 238.462C88.2145 239.745 85.6705 240.542 83.1185 240.872C82.9451 240.895 82.7717 240.918 82.5931 240.943C76.912 241.528 70.9186 240.362 66.3549 236.929C65.772 236.466 65.2121 235.984 64.6625 235.485C64.5449 235.384 64.5449 235.384 64.4249 235.281C62.657 233.694 61.4625 231.55 60.6958 229.369C60.6577 229.261 60.6197 229.152 60.5805 229.041C59.2254 224.975 59.9626 220.422 61.9067 216.661C63.5296 213.644 65.9606 211.489 69.2682 210.314C73.596 209.023 78.3701 209.76 82.332 211.766C86.0077 213.702 88.0116 217.02 89.193 220.799C90.2915 224.476 90.5693 228.746 88.8279 232.278C94.5546 227.162 95.7558 218.337 96.3962 211.244C96.4093 211.1 96.4225 210.957 96.436 210.808C97.2309 201.745 96.7014 192.57 95.9315 183.524C95.918 183.365 95.9045 183.207 95.8906 183.043C95.7684 181.619 95.641 180.196 95.4901 178.774C95.4809 178.687 95.4717 178.6 95.4622 178.511C95.4177 178.091 95.3724 177.672 95.3259 177.254C95.2378 176.436 95.1816 175.64 95.2012 174.818C95.1185 174.819 95.0357 174.821 94.9505 174.822C91.3043 174.871 87.6584 174.178 84.0775 173.601C83.1994 173.46 82.3205 173.328 81.4396 173.205C77.2465 172.619 73.1974 171.766 69.1769 170.457C68.9641 170.389 68.9641 170.389 68.7469 170.319C62.7673 168.372 57.1995 165.468 52.3142 161.607C52.2423 161.551 52.1704 161.495 52.0963 161.437C50.8401 160.451 49.6928 159.358 48.5467 158.257C48.4726 158.186 48.3985 158.115 48.3221 158.042C47.3771 157.135 46.5012 156.206 45.6754 155.194C45.5362 155.03 45.3968 154.867 45.2568 154.703C44.3465 153.628 43.5199 152.522 42.7543 151.347C42.6927 151.253 42.6311 151.159 42.5677 151.062C39.115 145.755 36.8813 139.791 36.381 133.518C36.3735 133.425 36.366 133.332 36.3583 133.236C35.4725 121.649 39.9122 110.596 47.222 101.548C47.4035 101.323 47.5831 101.097 47.7625 100.87C49.0234 99.2894 50.3939 97.7993 51.7831 96.3232C51.8846 96.2142 51.9862 96.1053 52.0908 95.993C53.0127 95.0103 53.9683 94.0642 54.9406 93.1281C55.1954 92.8827 55.4494 92.6366 55.7034 92.3905C56.429 91.6892 57.1519 90.9922 57.9345 90.3496C58.299 90.0491 58.6451 89.7298 58.9946 89.4132C59.6281 88.8438 60.2784 88.3048 60.9535 87.7814C61.416 87.4156 61.8646 87.0361 62.314 86.6556C63.1677 85.9359 64.044 85.2521 64.9411 84.5838C65.2126 84.3808 65.4828 84.1761 65.7527 83.9712C67.8152 82.4079 69.9255 80.9123 72.0738 79.4611C72.3699 79.2603 72.6648 79.058 72.9595 78.8553C75.704 76.9744 78.5354 75.2098 81.3924 73.4929C81.5595 73.3924 81.5595 73.3924 81.7301 73.2898C81.9659 73.1482 82.2018 73.0067 82.4379 72.8655C82.6738 72.7239 82.9091 72.5813 83.1437 72.4377C83.7139 72.0912 84.2814 71.771 84.8881 71.4879C84.9996 71.4324 85.1111 71.377 85.226 71.3198C85.55 71.1602 85.55 71.1602 85.8627 71.0344C86.2066 70.8593 86.3661 70.7366 86.5707 70.4147C86.67 69.7587 86.6349 69.125 86.5924 68.465C86.5695 68.0873 86.5557 67.71 86.5439 67.3319C86.5213 66.6115 86.4937 65.8913 86.4647 65.1711C86.4327 64.3701 86.4029 63.5689 86.3731 62.7677C86.3641 62.5282 86.3641 62.5282 86.355 62.2839C85.9413 51.1281 85.8663 39.8294 95.2012 9.10656C95.2537 9.03539 95.3062 8.96421 95.3603 8.89088C98.7167 4.37152 103.841 1.04824 109.541 0.128383C109.644 0.111354 109.746 0.0943241 109.852 0.0767786C114.049 -0.492368 118.109 0.842446 121.25 3.52727ZM100.956 13.8642C99.7572 15.3004 98.7341 16.8326 97.8567 18.4695C97.8001 18.5735 97.7435 18.6775 97.6852 18.7847C93.9627 25.6916 93.3231 33.5756 92.96 41.2216C92.9493 41.4445 92.9384 41.6675 92.9272 41.8905C92.8071 44.3225 92.7913 46.7504 92.7934 49.1844C92.7937 49.7271 92.7934 50.2697 92.7932 50.8123C92.7929 51.7208 92.7932 52.6293 92.7939 53.5377C92.7946 54.583 92.7944 55.6282 92.7936 56.6734C92.793 57.5788 92.793 58.4841 92.7933 59.3895C92.7935 59.9269 92.7935 60.4642 92.7931 61.0016C92.7927 61.5057 92.793 62.0098 92.7937 62.5139C92.7939 62.6972 92.7939 62.8805 92.7936 63.0639C92.7919 64.2386 92.841 65.3965 92.944 66.5669C93.0402 66.4738 93.1364 66.3807 93.2355 66.2848C93.4664 66.062 93.698 65.8398 93.9305 65.6185C94.0376 65.5162 94.1448 65.4138 94.2551 65.3084C94.3616 65.207 94.4681 65.1057 94.5777 65.0012C94.9386 64.6401 95.2782 64.2664 95.6186 63.8873C96.0294 63.4367 96.4579 63.0024 96.8858 62.5668C97.6631 61.7722 98.4359 60.974 99.2016 60.169C99.464 59.8931 99.728 59.6188 99.9931 59.3453C100.707 58.6075 101.399 57.8619 102.053 57.0737C102.289 56.7896 102.527 56.5082 102.768 56.228C103.769 55.0593 104.705 53.8564 105.612 52.6184C105.82 52.3341 106.03 52.0505 106.239 51.7669C107.098 50.6017 107.936 49.4245 108.744 48.2258C108.81 48.1293 108.875 48.0328 108.942 47.9334C111.096 44.7365 113.086 41.4367 114.985 38.0933C115.056 37.9678 115.128 37.8424 115.201 37.7131C115.711 36.8168 116.212 35.9168 116.711 35.015C116.788 34.8771 116.864 34.7392 116.944 34.5972C119.909 29.2521 122.891 22.8424 121.011 16.6606C120.081 13.8517 118.425 11.5459 115.751 10.053C110.313 7.43758 104.71 9.71234 100.956 13.8642ZM86.413 83.2727C86.2424 83.415 86.0717 83.5573 85.9011 83.6996C85.8136 83.7728 85.726 83.8459 85.6359 83.9213C85.2404 84.2514 84.8433 84.5797 84.4462 84.9081C84.2913 85.0363 84.1364 85.1646 83.9815 85.2928C83.0521 86.0624 83.0521 86.0624 82.8198 86.2547C82.6647 86.3831 82.5097 86.5116 82.3547 86.6401C81.9702 86.9589 81.585 87.2767 81.1979 87.5925C79.557 88.9342 78.0027 90.3527 76.4796 91.818C76.3748 91.9187 76.2701 92.0193 76.1621 92.1229C75.6118 92.656 75.0866 93.2007 74.5782 93.7711C74.1413 94.248 73.6646 94.6868 73.1934 95.1318C72.7067 95.5956 72.2501 96.0753 71.8034 96.5752C71.3245 97.1037 70.8194 97.609 70.3195 98.1188C69.7466 98.7054 69.1911 99.3038 68.6458 99.9144C68.5802 99.9877 68.5147 100.061 68.4471 100.137C68.0485 100.584 67.652 101.032 67.2555 101.481C67.0662 101.695 66.8761 101.907 66.6858 102.12C65.7752 103.142 64.9262 104.203 64.0853 105.279C63.8712 105.551 63.655 105.821 63.4379 106.091C56.6161 114.588 51.3472 124.331 52.5497 135.379C52.6268 135.961 52.728 136.535 52.8453 137.11C52.871 137.236 52.8967 137.362 52.9231 137.492C54.0961 143.029 56.7569 148.202 60.5464 152.501C60.6612 152.635 60.7758 152.77 60.8903 152.905C62.4172 154.684 64.1022 156.339 65.9902 157.76C66.1496 157.887 66.3084 158.016 66.4669 158.144C67.7512 159.183 69.0893 160.102 70.5047 160.966C70.6295 161.042 70.6295 161.042 70.7569 161.12C71.3292 161.466 71.9103 161.796 72.4963 162.12C72.6009 162.179 72.7056 162.237 72.8134 162.297C78.8529 165.631 85.2344 167.291 92.0809 168.189C92.2488 168.211 92.4166 168.233 92.5896 168.255C92.7462 168.275 92.9029 168.295 93.0643 168.315C93.2017 168.333 93.339 168.35 93.4805 168.368C93.8797 168.406 94.2693 168.412 94.6701 168.405C94.72 167.029 94.5708 165.664 94.4495 164.294C94.4256 164.02 94.4018 163.746 94.378 163.471C94.3132 162.724 94.2476 161.978 94.1818 161.231C94.112 160.436 94.0429 159.641 93.9737 158.846C93.848 157.404 93.7218 155.963 93.5953 154.521C93.48 153.207 93.3649 151.892 93.2501 150.578C93.2425 150.492 93.2349 150.405 93.2271 150.316C93.1966 149.966 93.166 149.616 93.1354 149.267C92.8576 146.088 92.5792 142.909 92.3004 139.73C92.0855 137.279 91.8713 134.829 91.6577 132.378C91.6482 132.269 91.6386 132.159 91.6288 132.046C91.6194 131.939 91.61 131.831 91.6004 131.72C91.4886 130.438 91.3764 129.156 91.2641 127.874C91.2485 127.697 91.233 127.519 91.2174 127.341C91.2098 127.255 91.2023 127.169 91.1945 127.08C91.1417 126.477 91.0891 125.874 91.0367 125.272C90.9684 124.487 90.8995 123.702 90.8303 122.917C90.8059 122.64 90.7817 122.362 90.7577 122.085C90.726 121.719 90.6936 121.353 90.661 120.986C90.652 120.881 90.643 120.775 90.6337 120.666C90.5958 120.149 90.5958 120.149 90.4212 119.666C89.7833 119.853 89.2039 120.112 88.6142 120.408C88.5186 120.455 88.423 120.503 88.3245 120.552C88.0161 120.705 87.7083 120.859 87.4005 121.013C87.2957 121.066 87.1908 121.118 87.0828 121.172C83.5217 122.951 80.187 124.794 77.2763 127.49C77.205 127.556 77.1338 127.621 77.0604 127.688C73.7435 130.743 71.7085 134.484 70.2848 138.649C70.2502 138.748 70.2157 138.848 70.1801 138.95C70.1167 139.133 70.055 139.316 69.9955 139.5C69.7938 140.083 69.5207 140.426 69.0441 140.829C68.888 140.734 68.888 140.734 68.7288 140.637C68.4087 140.423 68.4087 140.423 68.1147 140.445C67.5014 139.306 67.0874 138.125 66.9197 136.853C66.905 136.754 66.8902 136.654 66.8751 136.551C66.4046 132.688 67.0456 128.676 67.9819 124.925C68.0089 124.816 68.0359 124.708 68.0638 124.596C69.181 120.247 71.8834 116.156 75.2846 113.125C75.3594 113.058 75.4342 112.991 75.5113 112.922C78.3548 110.453 81.6065 108.556 85.0354 106.953C85.1633 106.893 85.2912 106.833 85.423 106.771C86.6722 106.197 87.9487 105.685 89.2262 105.173C89.2203 105.099 89.2143 105.025 89.2082 104.948C89.1326 104.006 89.0572 103.064 88.982 102.121C88.9607 101.855 88.9394 101.588 88.9181 101.322C88.7161 98.796 88.5179 96.2698 88.3224 93.7433C88.2865 93.2788 88.2505 92.8142 88.2144 92.3497C88.2025 92.1962 88.1906 92.0426 88.1783 91.8844C88.1543 91.5739 88.1302 91.2634 88.1061 90.9529C88.034 90.0234 87.9623 89.0938 87.8909 88.1643C87.8457 87.5769 87.8001 86.9895 87.7545 86.4021C87.733 86.1256 87.7118 85.849 87.6907 85.5724C87.6615 85.1913 87.6319 84.8103 87.6022 84.4292C87.5937 84.3175 87.5853 84.2057 87.5767 84.0906C87.5366 83.5844 87.4881 83.0951 87.3673 82.5994C87.0445 82.5994 86.659 83.0662 86.413 83.2727ZM96.9273 118.256C97.0176 120.626 97.2113 122.988 97.4009 125.352C97.4479 125.94 97.4944 126.527 97.5409 127.115C97.6106 127.995 97.6804 128.875 97.7503 129.755C97.9731 132.559 98.1941 135.363 98.4138 138.166C98.4244 138.302 98.435 138.438 98.446 138.577C98.892 144.272 99.3152 149.968 99.7255 155.664C99.7487 155.987 99.772 156.31 99.7953 156.633C100.084 160.642 100.37 164.652 100.645 168.662C100.877 168.622 101.108 168.582 101.339 168.542C101.468 168.519 101.597 168.497 101.73 168.474C102.236 168.381 102.732 168.263 103.23 168.136C103.329 168.11 103.429 168.085 103.532 168.059C103.851 167.978 104.169 167.895 104.487 167.812C104.651 167.769 104.651 167.769 104.818 167.726C106.485 167.288 108.11 166.817 109.674 166.096C109.77 166.052 109.866 166.008 109.965 165.963C113.493 164.316 116.523 161.835 118.835 158.786C118.891 158.713 118.946 158.64 119.003 158.566C122.987 153.248 124.826 146.437 123.781 139.956C122.652 133.475 119.274 127.447 113.698 123.554C108.631 120.08 102.987 118.958 96.9273 118.256Z" fill="#FDB724"/>
<path d="M35.1675 54.7501C35.3969 54.7499 35.6262 54.7497 35.8556 54.7494C36.477 54.7488 37.0984 54.7491 37.7198 54.7495C38.2508 54.7497 38.7817 54.7495 39.3127 54.7493C40.7428 54.7487 42.1729 54.7491 43.6031 54.7499C44.6467 54.7505 45.6903 54.7508 46.734 54.751C55.7526 54.7526 64.7706 54.7844 73.789 54.8493C73.884 54.85 73.9791 54.8506 74.077 54.8514C75.9401 54.8648 77.8031 54.88 79.6662 54.8949C79.6662 59.2545 79.6662 63.614 79.6662 68.1057C77.9313 68.1105 77.9313 68.1105 76.1614 68.1154C72.4526 68.1258 68.7438 68.1368 65.035 68.1482C64.458 68.1499 63.881 68.1517 63.3041 68.1534C63.1892 68.1538 63.0744 68.1541 62.956 68.1545C61.1011 68.1601 59.2461 68.1654 57.3912 68.1704C55.4851 68.1756 53.579 68.1813 51.6728 68.1874C50.4985 68.1911 49.3242 68.1945 48.1499 68.1974C47.3425 68.1995 46.5351 68.202 45.7277 68.2048C45.2632 68.2064 44.7987 68.2078 44.3343 68.2087C40.6336 68.1911 40.6336 68.1911 36.9535 68.5225C36.839 68.539 36.7244 68.5555 36.6065 68.5725C33.7295 69.0156 31.1297 70.0104 29.352 72.3383C28.0268 74.3206 27.5964 76.5558 27.5993 78.8833C27.5989 79.0078 27.5985 79.1323 27.5981 79.2606C27.597 79.6752 27.5969 80.0898 27.5967 80.5044C27.596 80.8028 27.5954 81.1013 27.5946 81.3998C27.5931 82.0418 27.592 82.6838 27.5911 83.3259C27.5897 84.3447 27.587 85.3636 27.5841 86.3825C27.5831 86.7323 27.5821 87.0822 27.5811 87.432C27.5808 87.5631 27.5808 87.5631 27.5804 87.6969C27.5776 88.691 27.5751 89.685 27.5727 90.6791C27.5725 90.7698 27.5723 90.8606 27.5721 90.9541C27.5686 92.4183 27.5661 93.8824 27.5639 95.3465C27.5616 96.8565 27.5577 98.3665 27.5526 99.8764C27.5498 100.721 27.5478 101.566 27.5475 102.411C27.5398 118.733 27.5398 118.733 21.8771 124.33C21.1474 125.002 20.3398 125.522 19.485 126.033C19.339 126.12 19.339 126.12 19.19 126.209C18.9961 126.324 18.8015 126.438 18.606 126.551C18.3747 126.686 18.1491 126.831 17.9249 126.977C17.9249 127.062 17.9249 127.146 17.9249 127.233C18.1781 127.418 18.1781 127.418 18.5079 127.602C18.6316 127.675 18.7552 127.747 18.8827 127.823C19.0157 127.901 19.1488 127.979 19.2858 128.059C21.9579 129.671 23.6947 131.643 24.9621 134.416C25.0017 134.501 25.0414 134.586 25.0822 134.673C26.4331 137.615 27.0221 140.851 27.352 144.035C27.3629 144.136 27.3738 144.237 27.3851 144.341C27.5217 145.789 27.5061 147.237 27.5079 148.689C27.5087 148.99 27.5096 149.291 27.5106 149.591C27.5125 150.236 27.5141 150.88 27.5153 151.525C27.5172 152.459 27.52 153.393 27.5231 154.327C27.5281 155.845 27.5328 157.363 27.537 158.882C27.5372 158.972 27.5375 159.063 27.5377 159.156C27.5413 160.443 27.5445 161.729 27.5475 163.015C27.5477 163.106 27.5479 163.196 27.5481 163.29C27.5483 163.38 27.5486 163.471 27.5488 163.564C27.5523 165.077 27.5569 166.59 27.5623 168.103C27.5659 169.116 27.5682 170.129 27.5697 171.142C27.571 171.774 27.5733 172.406 27.5759 173.037C27.5769 173.329 27.5774 173.62 27.5775 173.912C27.5787 177.243 27.8833 180.438 30.4158 182.933C32.8182 185.175 36.4979 185.665 39.6924 185.793C39.8213 185.798 39.9502 185.803 40.083 185.809C42.0094 185.878 43.9376 185.87 45.8649 185.872C46.4556 185.873 47.0462 185.874 47.6368 185.876C48.6565 185.878 49.6762 185.88 50.6959 185.882C52.1703 185.884 53.6447 185.887 55.1191 185.89C57.5123 185.896 59.9055 185.901 62.2986 185.906C62.4414 185.906 62.5842 185.906 62.7313 185.906C64.0368 185.909 65.3424 185.911 66.6479 185.914C67.5205 185.916 68.3932 185.917 69.2658 185.919C69.4093 185.919 69.5528 185.919 69.7006 185.92C72.0892 185.924 74.4778 185.93 76.8663 185.935C78.3384 185.938 79.8105 185.941 81.2826 185.944C82.2885 185.945 83.2943 185.947 84.3002 185.95C84.8811 185.951 85.462 185.952 86.0429 185.953C86.5736 185.953 87.1044 185.955 87.6351 185.956C87.8279 185.957 88.0207 185.957 88.2136 185.957C88.4739 185.957 88.7343 185.958 88.9946 185.959C89.2123 185.959 89.2123 185.959 89.4343 185.96C89.7572 185.976 89.7572 185.976 89.89 186.105C89.9275 186.456 89.9567 186.806 89.9807 187.159C89.9887 187.27 89.9966 187.381 90.0048 187.495C90.031 187.865 90.056 188.235 90.0808 188.606C90.0895 188.732 90.0982 188.859 90.1071 188.989C90.2507 191.097 90.3583 193.205 90.446 195.315C90.4516 195.451 90.4573 195.587 90.4631 195.727C90.4791 196.114 90.4946 196.501 90.5098 196.889C90.5166 197.06 90.5166 197.06 90.5235 197.234C90.5276 197.341 90.5316 197.449 90.5358 197.559C90.5393 197.651 90.5428 197.743 90.5465 197.838C90.5568 198.288 90.5543 198.737 90.5539 199.187C76.6046 199.258 62.6553 199.326 46.439 199.338C45.4039 199.339 44.3688 199.34 43.3336 199.342C42.0716 199.344 40.8096 199.345 39.5476 199.345C38.9086 199.345 38.2695 199.345 37.6305 199.346C30.207 199.362 22.071 199.269 16.4311 193.953C12.7988 190.392 11.9289 185.368 11.9307 180.544C11.9302 180.394 11.9298 180.243 11.9293 180.089C11.9281 179.676 11.9275 179.264 11.9272 178.852C11.9267 178.405 11.9254 177.959 11.9242 177.512C11.9222 176.739 11.9207 175.966 11.9194 175.193C11.9176 174.072 11.9147 172.951 11.9117 171.83C11.9066 170.005 11.902 168.181 11.8978 166.356C11.8975 166.247 11.8973 166.138 11.897 166.026C11.8934 164.483 11.8903 162.94 11.8873 161.397C11.8869 161.234 11.8869 161.234 11.8866 161.068C11.8864 160.96 11.8862 160.851 11.886 160.74C11.8824 158.924 11.8778 157.108 11.8725 155.292C11.8692 154.176 11.8667 153.06 11.8654 151.944C11.8644 151.176 11.8625 150.409 11.8598 149.641C11.8583 149.201 11.8574 148.76 11.8573 148.32C11.8555 142.489 11.5823 136.67 7.22804 132.236C5.5616 130.681 3.5804 129.454 1.63119 128.26C1.52678 128.196 1.42237 128.132 1.3148 128.066C1.11086 127.94 0.906349 127.816 0.701228 127.692C0.462924 127.546 0.230745 127.391 0 127.233C0 127.149 0 127.064 0 126.977C0.197869 126.829 0.197869 126.829 0.477167 126.665C0.580129 126.603 0.683091 126.542 0.789173 126.479C0.901185 126.413 1.0132 126.347 1.1286 126.279C3.3352 124.958 5.39513 123.555 7.30273 121.847C7.38454 121.776 7.46636 121.705 7.55065 121.633C10.9328 118.584 11.62 113.736 11.8049 109.509C11.8471 108.266 11.8388 107.021 11.8399 105.778C11.8404 105.329 11.8417 104.879 11.8429 104.43C11.8449 103.654 11.8464 102.878 11.8477 102.103C11.8495 100.978 11.8523 99.8526 11.8554 98.7277C11.8604 96.8978 11.8651 95.0679 11.8693 93.2381C11.8696 93.1289 11.8698 93.0197 11.8701 92.9072C11.8736 91.3586 11.8768 89.8101 11.8798 88.2615C11.88 88.1525 11.8802 88.0434 11.8805 87.9311C11.8808 87.7677 11.8808 87.7677 11.8811 87.6011C11.8847 85.778 11.8892 83.9549 11.8946 82.1318C11.8979 81.0113 11.9003 79.8908 11.9017 78.7702C11.9027 78.001 11.9046 77.2318 11.9073 76.4626C11.9088 76.0207 11.9099 75.5787 11.9098 75.1368C11.9115 69.5952 12.4187 64.0977 16.622 59.9452C21.4543 55.3265 28.7071 54.7416 35.1675 54.7501Z" fill="#1F67AF"/>
<path d="M120.349 54.5443C120.581 54.5445 120.813 54.5437 121.045 54.5422C121.674 54.5406 122.302 54.5508 122.931 54.5633C123.593 54.5745 124.255 54.5748 124.917 54.5763C126.031 54.5805 127.145 54.5915 128.259 54.6076C129.818 54.6301 131.376 54.6405 132.935 54.6482C152.908 54.7531 152.908 54.7531 158.674 60.279C163.078 64.6434 163.091 71.049 163.088 76.7425C163.089 77.1049 163.09 77.4673 163.091 77.8296C163.093 78.6024 163.094 79.3752 163.095 80.148C163.095 81.2684 163.098 82.3887 163.101 83.509C163.106 85.3319 163.109 87.1547 163.112 88.9775C163.112 89.086 163.113 89.1946 163.113 89.3064C163.114 90.1871 163.116 91.0677 163.117 91.9483C163.118 92.7192 163.119 93.49 163.121 94.2608C163.121 94.3694 163.121 94.478 163.121 94.5899C163.124 96.4078 163.128 98.2257 163.133 100.044C163.136 101.16 163.138 102.276 163.139 103.392C163.139 104.158 163.141 104.923 163.143 105.688C163.144 106.128 163.145 106.568 163.145 107.007C163.144 109.478 163.175 111.969 163.689 114.4C163.712 114.51 163.735 114.62 163.758 114.734C164.268 117.092 165.236 119.266 166.901 121.077C166.974 121.164 167.047 121.252 167.122 121.342C167.756 122.087 168.506 122.665 169.291 123.258C169.422 123.359 169.553 123.461 169.689 123.566C170.75 124.376 171.864 125.086 173.005 125.786C173.407 126.033 173.806 126.283 174.203 126.536C174.329 126.616 174.455 126.695 174.585 126.777C174.867 126.977 174.867 126.977 175 127.234C174.935 127.273 174.869 127.312 174.802 127.352C169.771 130.382 165.216 133.394 163.784 139.292C163.166 142.058 163.143 144.887 163.145 147.704C163.144 148.064 163.143 148.424 163.142 148.784C163.14 149.553 163.139 150.323 163.138 151.093C163.138 152.209 163.135 153.326 163.132 154.443C163.127 156.26 163.124 158.078 163.121 159.895C163.121 160.003 163.12 160.112 163.12 160.223C163.119 160.992 163.118 161.76 163.116 162.529C163.115 163.406 163.114 164.283 163.112 165.16C163.112 165.268 163.112 165.376 163.112 165.487C163.109 167.298 163.105 169.109 163.1 170.919C163.097 172.031 163.095 173.143 163.094 174.254C163.094 175.018 163.092 175.782 163.09 176.545C163.089 176.983 163.088 177.422 163.088 177.86C163.09 182.982 163.058 188.952 159.332 193.031C159.246 193.131 159.159 193.232 159.07 193.335C155.403 197.463 149.941 198.755 144.534 199.164C142.191 199.327 139.861 199.352 137.513 199.346C136.951 199.345 136.389 199.345 135.827 199.345C134.752 199.345 133.677 199.344 132.603 199.342C131.742 199.34 130.881 199.339 130.02 199.338C123.06 199.333 116.101 199.312 109.143 199.187C109.064 198.754 108.994 198.327 108.967 197.888C108.957 197.741 108.957 197.741 108.948 197.591C108.941 197.487 108.935 197.382 108.928 197.274C108.913 197.042 108.899 196.81 108.883 196.577C108.872 196.394 108.872 196.394 108.86 196.208C108.703 193.767 108.5 191.334 108.249 188.901C108.238 188.79 108.227 188.68 108.215 188.566C108.194 188.362 108.173 188.159 108.151 187.955C108.102 187.475 108.075 187.002 108.078 186.52C108.078 186.417 108.079 186.315 108.079 186.21C108.08 186.094 108.08 186.094 108.08 185.977C108.208 185.976 108.336 185.976 108.467 185.975C111.591 185.965 114.715 185.953 117.839 185.94C119.35 185.933 120.86 185.927 122.371 185.922C123.69 185.918 125.009 185.913 126.328 185.907C127.024 185.904 127.721 185.901 128.417 185.899C132.168 185.89 132.168 185.89 135.915 185.731C136.156 185.716 136.156 185.716 136.403 185.7C139.601 185.474 142.858 184.726 145.125 182.385C145.48 181.935 145.775 181.47 146.055 180.974C146.116 180.868 146.177 180.762 146.24 180.652C147.218 178.784 147.403 176.59 147.401 174.529C147.401 174.405 147.401 174.28 147.402 174.152C147.403 173.739 147.403 173.326 147.403 172.913C147.404 172.615 147.405 172.317 147.405 172.019C147.407 171.38 147.408 170.74 147.409 170.1C147.41 169.085 147.413 168.07 147.416 167.055C147.417 166.706 147.418 166.358 147.419 166.009C147.419 165.878 147.419 165.878 147.42 165.745C147.422 164.755 147.425 163.766 147.427 162.776C147.427 162.686 147.428 162.595 147.428 162.502C147.431 161.043 147.434 159.584 147.436 158.125C147.438 156.621 147.442 155.116 147.447 153.612C147.45 152.77 147.452 151.927 147.453 151.085C147.453 150.291 147.455 149.497 147.458 148.703C147.459 148.414 147.46 148.126 147.459 147.837C147.456 145.103 147.675 142.367 148.279 139.691C148.313 139.537 148.347 139.383 148.382 139.224C149.036 136.38 150.046 133.335 152.03 131.081C152.175 130.914 152.175 130.914 152.324 130.744C153.469 129.475 154.707 128.623 156.186 127.756C156.431 127.61 156.431 127.61 156.725 127.388C156.942 127.234 156.942 127.234 157.208 127.234C157.208 127.149 157.208 127.064 157.208 126.977C157.063 126.925 157.063 126.925 156.915 126.872C153.366 125.426 151.024 122.38 149.614 119.033C148.252 115.543 147.494 111.678 147.496 107.944C147.495 107.817 147.495 107.691 147.495 107.561C147.493 107.141 147.493 106.722 147.492 106.302C147.491 106 147.49 105.697 147.489 105.395C147.488 104.745 147.486 104.096 147.485 103.446C147.483 102.505 147.48 101.564 147.477 100.622C147.472 99.0912 147.467 97.5602 147.463 96.0293C147.463 95.9379 147.463 95.8464 147.462 95.7522C147.459 94.4558 147.456 93.1594 147.453 91.863C147.452 91.7718 147.452 91.6806 147.452 91.5866C147.452 91.4499 147.452 91.4499 147.451 91.3105C147.448 89.7859 147.443 88.2612 147.438 86.7366C147.434 85.7158 147.432 84.6949 147.43 83.674C147.429 83.0366 147.427 82.3992 147.424 81.7617C147.423 81.4681 147.423 81.1745 147.423 80.8809C147.421 77.3529 147.232 73.7705 144.544 71.1024C141.043 68.053 135.671 68.2222 131.258 68.2078C131.013 68.2065 130.768 68.2052 130.523 68.2039C129.868 68.2005 129.212 68.1978 128.556 68.1952C127.867 68.1924 127.179 68.1889 126.49 68.1854C125.19 68.1791 123.89 68.1733 122.589 68.1677C121.107 68.1614 119.626 68.1543 118.144 68.1473C115.099 68.1327 112.054 68.119 109.01 68.1058C109.158 67.86 109.305 67.6142 109.453 67.3685C109.577 67.1632 109.577 67.1632 109.703 66.9537C109.987 66.4888 110.288 66.0382 110.601 65.5912C110.661 65.5052 110.721 65.4191 110.782 65.3305C110.91 65.146 111.038 64.9617 111.167 64.7776C111.518 64.2741 111.867 63.7695 112.216 63.265C112.326 63.1063 112.326 63.1063 112.438 62.9444C113.461 61.467 114.471 59.9808 115.481 58.4955C115.553 58.3895 115.625 58.2835 115.7 58.1743C115.832 57.9804 115.964 57.7865 116.095 57.5925C116.219 57.4101 116.346 57.229 116.474 57.0492C116.656 56.7732 116.81 56.5073 116.962 56.2164C117.803 54.7002 118.636 54.4912 120.349 54.5443Z" fill="#1F67AF"/>
</g>
<defs>
<clipPath id="clip0_415_2">
<rect width="175" height="241" fill="white"/>
</clipPath>
</defs>
</svg>
